<svg width="117" height="37" viewBox="0 0 117 37" fill="none" xmlns="http://www.w3.org/2000/svg">
<rect width="116" height="37" rx="18.5" fill="#EDA61D"/>
<path d="M19.7734 12.1328H21.6094V15.9609H19.7734C19.2526 14.5859 18.349 13.8984 17.0625 13.8984C16 13.8984 15.1953 14.2604 14.6484 14.9844C14.1068 15.7083 13.8359 16.5755 13.8359 17.5859C13.8359 18.6432 14.1224 19.5 14.6953 20.1562C15.2734 20.8073 16.0078 21.1328 16.8984 21.1328C17.6276 21.1328 18.2656 20.8854 18.8125 20.3906C19.3594 19.8958 19.7292 19.2083 19.9219 18.3281L22.0625 19.3516C21.25 21.8724 19.4609 23.1328 16.6953 23.1328C14.7422 23.1328 13.2682 22.6068 12.2734 21.5547C11.2839 20.5026 10.7891 19.1719 10.7891 17.5625C10.7891 16.4167 11.0469 15.4141 11.5625 14.5547C12.0781 13.6953 12.7708 13.0495 13.6406 12.6172C14.5156 12.1797 15.474 11.9609 16.5156 11.9609C17.8125 11.9609 18.8984 12.2995 19.7734 12.9766V12.1328ZM22.9375 23V21.2578H24.1562V13.875H22.9375V12.1328H26.5625V16.0469C27.3229 15.5156 28.0391 15.25 28.7109 15.25C30.2578 15.25 31.0312 16.1797 31.0312 18.0391V21.2578H32.1406V23H28.6172V18.1484C28.6172 17.7943 28.5521 17.5521 28.4219 17.4219C28.2969 17.2865 28.1068 17.2188 27.8516 17.2188C27.4922 17.2188 27.0625 17.3776 26.5625 17.6953V21.2578H27.6406V23H22.9375ZM39.1641 20.7188L41.0391 21.3203C40.2526 22.5547 39.0234 23.1719 37.3516 23.1719C36.0182 23.1719 34.9766 22.8203 34.2266 22.1172C33.4818 21.4141 33.1094 20.4896 33.1094 19.3438C33.1094 18.1771 33.4948 17.2031 34.2656 16.4219C35.0365 15.6406 36.0182 15.25 37.2109 15.25C38.0755 15.25 38.8229 15.4688 39.4531 15.9062C40.0833 16.3438 40.5208 16.888 40.7656 17.5391C41.0104 18.1901 41.1328 18.9167 41.1328 19.7188H35.5C35.5365 20.4062 35.7526 20.8932 36.1484 21.1797C36.5495 21.4661 36.9714 21.6094 37.4141 21.6094C37.9922 21.6094 38.5755 21.3125 39.1641 20.7188ZM38.7031 18.375C38.6458 17.9531 38.4792 17.5938 38.2031 17.2969C37.9323 17 37.5599 16.8516 37.0859 16.8516C36.2005 16.8516 35.6849 17.3594 35.5391 18.375H38.7031ZM50.0547 15.4375V18.5078H48.3359C47.9453 17.6641 47.3333 17.2422 46.5 17.2422C45.9688 17.2422 45.5443 17.4193 45.2266 17.7734C44.9141 18.1224 44.7578 18.5911 44.7578 19.1797C44.7578 19.8932 44.9245 20.4219 45.2578 20.7656C45.5911 21.1042 46 21.2734 46.4844 21.2734C46.8698 21.2734 47.2344 21.1641 47.5781 20.9453C47.9219 20.7214 48.1979 20.4271 48.4062 20.0625L50.2812 20.8906C49.5833 22.4115 48.3594 23.1719 46.6094 23.1719C45.2917 23.1719 44.2396 22.8125 43.4531 22.0938C42.6719 21.375 42.2812 20.4141 42.2812 19.2109C42.2812 18.0078 42.6641 17.0599 43.4297 16.3672C44.2005 15.6693 45.0964 15.3203 46.1172 15.3203C46.9349 15.3203 47.6979 15.5677 48.4062 16.0625V15.4375H50.0547ZM50.9844 23V21.2578H52.2031V13.875H50.9844V12.1328H54.6094V19L57.2109 16.8828H55.6094V15.4375H60.1797V16.9688H59.4219L57.2109 18.8594L59.2266 21.2578H60.2734V23H57.9531L54.6094 19V21.3438H55.5234V23H50.9844ZM67.6797 23.0703L64.4453 13.9688H63.1484V12.1328H68.6953V13.9688H67.2891L69.1172 19.4141L70.9531 13.9688H69.5703V12.1328H74.375V13.9688H73.0547L69.9375 23.0703H67.6797ZM75.8281 13.2734C75.8281 12.9089 75.9557 12.5964 76.2109 12.3359C76.4714 12.0755 76.7839 11.9453 77.1484 11.9453C77.5182 11.9453 77.8307 12.0755 78.0859 12.3359C78.3411 12.5964 78.4688 12.9089 78.4688 13.2734C78.4688 13.638 78.3385 13.9505 78.0781 14.2109C77.8229 14.4661 77.513 14.5938 77.1484 14.5938C76.7891 14.5938 76.4792 14.4635 76.2188 14.2031C75.9583 13.9427 75.8281 13.6328 75.8281 13.2734ZM74.7656 17.1875V15.4375H78.3281V21.2578H79.4531V23H74.7656V21.2578H75.9141V17.1875H74.7656ZM89.4844 21.2578V23H85.8281V22.1016C85.1562 22.7734 84.4271 23.1094 83.6406 23.1094C82.6979 23.1094 81.9167 22.7266 81.2969 21.9609C80.6771 21.1953 80.3672 20.2682 80.3672 19.1797C80.3672 18.0755 80.6849 17.1458 81.3203 16.3906C81.9557 15.6302 82.7318 15.25 83.6484 15.25C84.5286 15.25 85.2552 15.5911 85.8281 16.2734V13.875H84.6484V12.1328H88.2422V21.2578H89.4844ZM85.8516 19.2031C85.8516 18.4792 85.6953 17.9635 85.3828 17.6562C85.0755 17.349 84.724 17.1953 84.3281 17.1953C83.8542 17.1953 83.487 17.3802 83.2266 17.75C82.9714 18.1146 82.8438 18.5964 82.8438 19.1953C82.8438 19.763 82.9714 20.2422 83.2266 20.6328C83.4818 21.0182 83.8516 21.2109 84.3359 21.2109C84.737 21.2109 85.0885 21.0547 85.3906 20.7422C85.6979 20.4245 85.8516 19.9115 85.8516 19.2031ZM96.4297 20.7188L98.3047 21.3203C97.5182 22.5547 96.2891 23.1719 94.6172 23.1719C93.2839 23.1719 92.2422 22.8203 91.4922 22.1172C90.7474 21.4141 90.375 20.4896 90.375 19.3438C90.375 18.1771 90.7604 17.2031 91.5312 16.4219C92.3021 15.6406 93.2839 15.25 94.4766 15.25C95.3411 15.25 96.0885 15.4688 96.7188 15.9062C97.349 16.3438 97.7865 16.888 98.0312 17.5391C98.276 18.1901 98.3984 18.9167 98.3984 19.7188H92.7656C92.8021 20.4062 93.0182 20.8932 93.4141 21.1797C93.8151 21.4661 94.237 21.6094 94.6797 21.6094C95.2578 21.6094 95.8411 21.3125 96.4297 20.7188ZM95.9688 18.375C95.9115 17.9531 95.7448 17.5938 95.4688 17.2969C95.1979 17 94.8255 16.8516 94.3516 16.8516C93.4661 16.8516 92.9505 17.3594 92.8047 18.375H95.9688ZM103.523 23.1719C102.409 23.1719 101.466 22.8203 100.695 22.1172C99.9297 21.4089 99.5469 20.4401 99.5469 19.2109C99.5469 17.9818 99.9297 17.0156 100.695 16.3125C101.466 15.6042 102.409 15.25 103.523 15.25C104.643 15.25 105.586 15.6042 106.352 16.3125C107.117 17.0156 107.5 17.9818 107.5 19.2109C107.5 20.4245 107.12 21.388 106.359 22.1016C105.604 22.8151 104.659 23.1719 103.523 23.1719ZM103.516 21.2969C103.964 21.2969 104.326 21.125 104.602 20.7812C104.883 20.4375 105.023 19.8984 105.023 19.1641C105.023 18.5182 104.888 18.0156 104.617 17.6562C104.346 17.2917 103.979 17.1094 103.516 17.1094C102.521 17.1094 102.023 17.8281 102.023 19.2656C102.023 19.8542 102.146 20.3411 102.391 20.7266C102.641 21.1068 103.016 21.2969 103.516 21.2969Z" fill="black"/>
</svg>
